<mxfile host="app.diagrams.net" modified="2024-03-26T09:17:29.313Z" agent="Mozilla/5.0 (Macintosh; Intel Mac OS X 10_15_7) AppleWebKit/605.1.15 (KHTML, like Gecko) Version/17.4 Safari/605.1.15" version="24.1.0" etag="bw_4NU69khi-ZT_nEyvt" type="github">
  <diagram name="Page-1" id="W3C-r0Ur-NDzCpWbc3aA">
    <mxGraphModel>
      <root>
        <mxCell id="0" />
        <mxCell id="1" parent="0" />
      </root>
    </mxGraphModel>
  </diagram>
</mxfile>
